<?xml version="1.0" encoding="utf-8"?>
<!-- Generator: Adobe Illustrator 16.0.0, SVG Export Plug-In . SVG Version: 6.00 Build 0)  -->
<!DOCTYPE svg PUBLIC "-//W3C//DTD SVG 1.1//EN" "http://www.w3.org/Graphics/SVG/1.1/DTD/svg11.dtd">
<svg version="1.1" id="Layer_1" xmlns="http://www.w3.org/2000/svg" xmlns:xlink="http://www.w3.org/1999/xlink" x="0px" y="0px"
	 width="318.033px" height="119.561px" viewBox="0 0 318.033 119.561" enable-background="new 0 0 318.033 119.561"
	 xml:space="preserve">
<g>
	<path d="M11.95,49.556c0.596-0.255,1.83-0.353,3.705-0.288c1.875,0.063,3.217,0.246,4.026,0.543l1.598,0.511
		c1.32,0.896,2.066,1.343,2.237,1.343c1.746,1.363,2.748,3.152,3.003,5.367c0.256,0.938,0.298,1.789,0.128,2.557
		c0,0.256-0.086,0.811-0.255,1.662l-0.64,1.471l-0.768,1.086c-0.256,0.043-0.405,0.063-0.447,0.063
		c-1.576,0.256-2.791,0.286-3.643,0.096c-0.854-0.19-1.599-0.648-2.236-1.374c-0.127-0.256-0.191-0.488-0.191-0.702
		c0.042-0.212,0.105-0.404,0.191-0.575l0.319-1.021c0.554-1.362,0.512-2.514-0.128-3.451c0-0.127-0.214-0.36-0.64-0.702
		s-0.757-0.597-0.989-0.768c-0.235-0.169-0.65-0.19-1.246-0.063c-1.021,0.427-1.896,1.727-2.62,3.897
		c-0.854,1.108-1.448,2.557-1.789,4.347c-0.511,3.193-0.768,5.006-0.768,5.432l-0.063,1.405v0.574
		c-0.086,0.086-0.043,1.938,0.129,5.561c0.042,0.214,0.128,0.512,0.256,0.896c0.127,0.471,0.318,1.235,0.574,2.302l0.831,1.404
		c0.212,0.128,0.489,0.513,0.831,1.149c0.213,0,0.384,0.149,0.512,0.447c0.297,0.299,0.425,0.47,0.383,0.512
		c0.213,0.043,0.532,0.171,0.958,0.384c1.149,0.598,2.15,0.47,3.003-0.384c0.298-0.298,0.671-0.713,1.118-1.246
		c0.447-0.531,0.788-0.959,1.021-1.277s0.606-0.628,1.119-0.927c1.405-1.063,2.619-1.021,3.642,0.128
		c0.214,0.342,0.245,1.16,0.097,2.46c-0.149,1.301-0.757,2.651-1.82,4.06c-0.086,0.255-0.363,0.671-0.831,1.245
		c-0.47,0.574-0.958,1.032-1.471,1.373c-0.085,0.299-1.704,0.513-4.855,0.641c-0.17,0-0.511-0.043-1.021-0.128
		c-0.469,0.128-1.098,0.063-1.885-0.19c-0.789-0.257-1.226-0.385-1.311-0.385l-0.831-0.19c-0.342,0-0.683-0.106-1.021-0.319
		c-0.342-0.212-0.905-0.585-1.692-1.118c-0.789-0.531-1.396-0.968-1.821-1.311C5.37,85.024,4.453,83.853,3.9,82.531
		c-0.171-0.298-0.276-0.713-0.318-1.245c-0.043-0.532-0.128-0.928-0.256-1.184c-0.342-0.34-0.501-0.896-0.479-1.661
		c0.021-0.768-0.032-1.703-0.16-2.813c0-0.513,0.021-0.81,0.063-0.896c-0.213-0.213-0.298-0.585-0.255-1.118
		c0.042-0.531,0.063-1.268,0.063-2.204c0.128-0.257,0.181-1.013,0.159-2.27c-0.021-1.256,0.011-2.204,0.097-2.845
		c-0.17-0.383-0.19-0.938-0.063-1.66l0.063-1.917c0.042-0.768,0.233-1.575,0.575-2.43c0.042-0.384,0.128-0.841,0.256-1.374
		c0.127-0.531,0.682-1.607,1.661-3.228c0-0.341,0.319-0.768,0.958-1.277c0-0.17,0.17-0.426,0.511-0.768
		c0.342-0.341,0.725-0.768,1.149-1.278c0.597-0.724,1.257-1.256,1.98-1.597C10.629,50.43,11.311,50.025,11.95,49.556z"/>
	<path d="M31.184,75.82l0.256-3.259c0.297-2.938,1.191-5.452,2.685-7.54c1.447-1.747,3.493-2.643,6.135-2.686h0.384
		c2.47,0,4.259,0.533,5.368,1.599c1.191,0.938,2.076,1.96,2.651,3.066c0.574,1.107,0.947,1.917,1.118,2.43
		c0.17,0.511,0.276,1.257,0.319,2.235c0.085,1.832-0.276,2.876-1.086,3.131c0.596,4.049,0.233,7.265-1.086,9.648
		c-0.427,0.98-1.045,2.045-1.854,3.195c-0.598,0.767-1.662,1.191-3.195,1.276c-1.533,0-2.865-0.085-3.993-0.255
		c-1.13-0.171-2.375-0.714-3.738-1.631c-1.363-0.915-2.321-2.417-2.875-4.505C31.673,80.528,31.312,78.292,31.184,75.82z
		 M42.878,69.813c-0.299-1.703-1.129-2.492-2.491-2.364c-0.768,0.044-1.429,0.556-1.981,1.534c-0.767,1.491-1.098,3.418-0.99,5.783
		c0.105,2.363,0.276,4.067,0.511,5.11c0.234,1.045,0.649,1.949,1.246,2.717c0.341,0.598,0.853,0.873,1.534,0.83
		c1.191,0,2.065-1,2.62-3.003l0.511-1.533c0.212-0.214,0.255-0.426,0.127-0.64c0.426-1.063,0.66-2.32,0.703-3.771
		c-0.426-0.298-0.683-0.575-0.768-0.831c-0.256-0.725-0.384-1.214-0.384-1.47c-0.299-0.213-0.47-0.616-0.512-1.215
		C42.962,70.368,42.919,69.984,42.878,69.813z"/>
	<path d="M73.613,66.107l0.064-0.575c-0.896-0.085-1.523-0.158-1.886-0.224c-0.361-0.063-0.947-0.139-1.757-0.225
		c-0.811-0.085-1.449-0.213-1.917-0.385c-0.896-0.297-1.406-1.074-1.534-2.331c-0.127-1.257,0.276-2.034,1.214-2.333
		c0.853-0.214,1.448-0.32,1.789-0.32c0.342,0,0.979-0.042,1.917-0.127c0.469-0.256,1.106-0.403,1.917-0.446l0.958-0.256
		c0,0.043,0.169,0,0.512-0.129l0.318-1.342c0-0.682,0.191-1.362,0.575-2.045c0-0.298,0.275-1.128,0.831-2.492
		c0-0.169,0.383-1.405,1.149-3.706c0.17-0.213,0.81-0.702,1.917-1.47c0.681-0.342,1.64-0.105,2.875,0.702
		c0.681,0.3,1.149,0.703,1.405,1.215c-0.255,0.255-0.383,0.854-0.383,1.788c-0.043,0.3-0.342,1.875-0.896,4.729v1.789
		c0.34,0.043,0.904,0.148,1.692,0.318c0.788,0.171,1.734,0.362,2.845,0.574c2.129,0.427,3.472,1.278,4.025,2.558
		c0.212,0.938,0.169,1.599-0.128,1.979c-0.299,0.384-1.021,0.661-2.174,0.831c-0.938,0.043-2.162,0.063-3.674,0.063
		c-1.514,0-2.631,0.106-3.354,0.319c-0.086,0.768-0.128,1.363-0.128,1.789l-0.063,0.958c0,0.299-0.191,1.875-0.575,4.729
		c-0.255,0.384-0.469,2.364-0.64,5.941v4.665c0,0.768,0.064,1.491,0.192,2.174c0.042,0.938,0.148,1.598,0.318,1.979
		c0,0.384,0.105,1.192,0.319,2.429c-0.511,1.234-1.353,1.854-2.523,1.854s-2.204-0.426-3.1-1.276l-0.702-1.021
		c-0.127-0.342-0.225-0.575-0.287-0.703c-0.063-0.128-0.118-0.275-0.16-0.446c-0.298-0.853-0.532-1.385-0.702-1.599
		c-0.257-0.341-0.384-0.597-0.384-0.768c0-0.17,0-0.384,0-0.64c-0.086-0.725-0.191-1.343-0.319-1.854
		c-0.213-0.213-0.319-0.937-0.319-2.173c0.086-2.258,0.086-3.557,0-3.897c0.129-0.128,0.149-0.938,0.064-2.429l0.19-1.405
		c0-0.17,0.085-0.81,0.256-1.917c-0.086-0.17-0.106-0.628-0.063-1.374c0.042-0.743,0.105-1.268,0.191-1.564
		C73.57,67.513,73.613,66.874,73.613,66.107z"/>
	<path d="M96.203,61.123c0.36,0,0.639-0.054,0.831-0.16c0.19-0.104,0.553-0.243,1.086-0.415c0.531-0.17,1.799-0.17,3.802,0
		c1.106,0.215,2.343,0.768,3.707,1.661c1.406,0.684,2.534,1.62,3.388,2.813c1.191,3.151,1.854,5.899,1.98,8.243
		c0.085,3.578-0.256,6.54-1.021,8.882c-1.064,2.686-1.77,4.262-2.108,4.729c-0.087,0.555-0.427,1.276-1.021,2.172
		c-0.214,0-0.384,0.021-0.512,0.063c0,0.042-0.118,0.182-0.353,0.415c-0.233,0.233-0.564,0.353-0.989,0.353
		c-0.555,0.128-0.886,0.245-0.991,0.353c-0.105,0.104-0.33,0.16-0.671,0.16l-1.598,0.127h-1.727c-1.149,0-2.066-0.148-2.748-0.447
		l-1.917-1.276l-0.639-0.769c-0.128,0-0.203-0.053-0.225-0.158s-0.055-0.202-0.097-0.288c-0.383-0.297-0.574-0.64-0.574-1.021
		c-0.471-0.725-0.703-1.233-0.703-1.533c0-0.298-0.063-0.512-0.191-0.639c0-0.641-0.19-1.576-0.575-2.813l-0.128-0.895v-0.702
		c-0.043-0.641-0.214-1.386-0.511-2.237c0.085-0.085,0.085-0.318,0-0.702c0-0.979,0.021-1.64,0.063-1.979l-0.192-0.831
		c0.129-0.255,0.182-0.489,0.16-0.702c-0.022-0.213,0.032-0.531,0.16-0.959v-0.446l0.256-2.236c0-0.298,0.042-0.531,0.128-0.702
		V68.73c0.084,0,0.147-0.213,0.19-0.64l0.32-0.512l0.063-0.512c0-0.128-0.021-0.256-0.063-0.384l0.318-0.959
		c0-0.084,0.148-0.34,0.446-0.768c0-0.213,0.149-0.531,0.447-0.958c0-0.213,0.105-0.47,0.319-0.769c0-0.383,0.232-0.872,0.703-1.47
		C95.446,61.336,95.84,61.123,96.203,61.123z M105.245,73.2l-0.319-1.661c0-0.128-0.031-0.275-0.096-0.447
		c-0.063-0.17-0.14-0.488-0.225-0.959c-0.342-0.255-0.575-0.446-0.703-0.573l-0.318-0.513l-0.191-0.574
		c-0.213-0.128-0.331-0.31-0.353-0.543s-0.105-0.427-0.255-0.575c-0.15-0.147-0.268-0.298-0.353-0.446
		c-0.086-0.147-0.171-0.245-0.255-0.287c-0.385-0.257-0.896-0.276-1.534-0.063c-0.64,0.214-1.021,0.512-1.149,0.896
		c-0.726,1.619-1.086,2.662-1.086,3.132c-0.598,2.044-0.768,3.493-0.512,4.346c-0.086,1.363,0.085,3.237,0.512,5.623v0.702
		c0.383,0.513,0.744,1.192,1.086,2.045c0.425,0.556,0.713,0.948,0.862,1.184c0.148,0.233,0.245,0.373,0.288,0.415
		c0.425,0.299,0.682,0.513,0.768,0.64c0.34-0.169,0.574-0.297,0.703-0.384v-0.446c0.212-0.17,0.403-0.298,0.574-0.384
		c-0.043,0,0.104-0.148,0.447-0.447l0.318-0.318c0.64-1.363,0.958-2.077,0.958-2.142c0-0.063-0.021-0.202-0.063-0.416
		c-0.17-0.383-0.063-0.682,0.319-0.896l0.768-2.235v-0.384c0.085-0.256,0.042-0.447-0.128-0.574v-0.447
		c0.085-0.17,0.128-0.341,0.128-0.512c0.17-0.682,0.245-1.086,0.225-1.215c-0.021-0.128-0.012-0.287,0.031-0.479
		c0.042-0.19,0.104-0.328,0.19-0.414C106.012,73.669,105.798,73.456,105.245,73.2z"/>
	<path d="M128.121,63.231c0-1.063,0.938-1.64,2.813-1.726c0.212,0,0.446-0.042,0.703-0.128h0.128
		c1.702-0.128,2.821-0.182,3.354-0.159c0.531,0.021,0.946,0.011,1.246-0.032h2.172c0,0.043,0.446,0.063,1.342,0.063h1.471
		c0.596,0.043,1.043,0.128,1.342,0.256l1.917,0.19c0.469,0,1.043,0.055,1.726,0.16c0.682,0.105,1.502,0.629,2.46,1.564
		c0.958,0.938,1.606,2.107,1.949,3.516c0.297,0.726,0.468,1.269,0.511,1.629c0.042,0.362-0.203,0.863-0.734,1.502
		c-0.533,0.64-0.874,1.021-1.021,1.15c-0.149,0.128-0.246,0.224-0.288,0.286c-0.043,0.063-0.427,0.564-1.149,1.502
		c-0.171,0.129-0.353,0.385-0.543,0.768c-0.191,0.384-0.416,0.684-0.671,0.896l-1.215,1.149c-0.171,0.171-0.682,0.8-1.533,1.887
		c-0.854,1.086-1.557,1.843-2.109,2.27c-0.554,0.426-1.149,1.044-1.788,1.854c0.169-0.129,0.19-0.104,0.063,0.063
		c-0.171,0.17-0.49,0.489-0.958,0.958c-1.15,1.021-1.471,1.747-0.958,2.173l0.446,0.19l1.534-0.19c0.212,0,0.81-0.19,1.789-0.575
		c0.896-0.256,1.831-0.341,2.813-0.256c1.021-0.128,1.768-0.225,2.236-0.287c0.469-0.063,0.725-0.096,0.768-0.096l0.831-0.192
		c1.917,0.044,2.705,1.003,2.363,2.877c0,0.938-0.404,1.575-1.214,1.917l-0.446,0.318l-1.789,0.768
		c-0.257,0.17-0.598,0.276-1.022,0.319c-1.149,0.34-2.418,0.605-3.802,0.799c-1.385,0.191-2.333,0.415-2.844,0.672
		c-0.512,0.085-1.15,0.096-1.917,0.03c-0.768-0.063-1.471-0.096-2.109-0.096c-1.661-0.215-2.938-1.001-3.834-2.364
		c-0.341,0.341-0.597,0.104-0.767-0.703c-0.087-0.297-0.15-0.681-0.192-1.149c-0.341-0.34-0.597-0.958-0.768-1.854v-1.277
		c0-0.085,0.17-0.469,0.512-1.149c0-0.469,0.34-1.171,1.021-2.108c0.256-0.213,0.543-0.574,0.862-1.087
		c0.32-0.511,1.268-1.299,2.845-2.363c0.938-0.768,1.564-1.311,1.885-1.629c0.319-0.319,0.672-0.648,1.055-0.99
		c0.383-0.341,0.745-0.703,1.086-1.087l0.575-0.446c0.938-0.64,1.767-1.447,2.491-2.429l1.087-1.405
		c0.213-0.342,0.17-0.617-0.128-0.831c-0.938-0.64-2.918-0.744-5.942-0.319l-2.364,0.128c-0.086,0.043-1.13,0.172-3.132,0.385
		h-0.958c-0.299-0.085-0.757-0.521-1.374-1.312c-0.617-0.788-1.086-1.564-1.405-2.332C128.217,64.126,128.078,63.573,128.121,63.231
		z"/>
	<path d="M155.343,85.406c-0.128-1.832-0.106-3.236,0.064-4.218c0.979-3.579,1.745-6.306,2.3-8.181c0-0.042,0.148-0.574,0.446-1.598
		c0.469-1.49,0.896-2.471,1.278-2.938c0-0.128,0.169-0.469,0.511-1.022c0-0.383,0.469-1.043,1.406-1.979l0.702-0.769
		c0.768-0.682,1.854-1.021,3.26-1.021c0.511-0.084,1.106-0.063,1.789,0.063c1.234,0.554,2.642,1.385,4.218,2.491l0.64,0.385
		c0.341,0.085,0.66,0.19,0.959,0.318c0.169,0,0.531,0.086,1.086,0.255l0.831,0.641c0.383,0.256,0.616,0.618,0.702,1.086
		c-0.256,0.256-0.384,1.087-0.384,2.492c-0.171,1.832-0.043,3.983,0.384,6.453c0.17,2.302,0.574,4.729,1.215,7.285
		c0,0.214,0.159,0.789,0.479,1.727c0.319,0.938,0.458,1.533,0.416,1.789c0,1.063-1.002,1.599-3.004,1.599
		c-1.96-0.128-3.322-0.979-4.091-2.558c-0.043-0.17-0.19-0.512-0.446-1.021c-0.512-0.512-0.789-0.938-0.831-1.277l-0.128-0.896
		c-0.171-0.128-0.276-0.298-0.318-0.512c-0.512,0.726-1.149,1.471-1.917,2.235l-1.343,2.109l-0.511,0.511
		c-0.043,0.17-0.49,0.372-1.343,0.606c-0.854,0.232-1.47,0.267-1.854,0.097c-0.214,0-0.511-0.043-0.896-0.128l-2.813-1.15
		c-0.639-0.17-1.107-0.468-1.405-0.895c-0.555-0.342-0.831-0.532-0.831-0.575C155.492,86.087,155.3,85.619,155.343,85.406z
		 M168.826,69.941l-0.32-0.574c-0.511,0-1.47,1.045-2.875,3.132c-1.66,2.258-2.833,4.495-3.515,6.709
		c-0.47,1.32-0.746,2.406-0.831,3.26c0,1.235,0.255,2.045,0.768,2.429c0.213,0,0.457-0.147,0.734-0.447
		c0.276-0.298,0.438-0.511,0.479-0.639c0.297-0.17,0.681-0.66,1.149-1.471c0.554-0.811,0.853-1.234,0.896-1.277l0.575-1.214
		l1.086-1.854c-0.086,0,0.042-0.489,0.383-1.471c0.512-0.896,0.788-1.574,0.831-2.045L168.826,69.941z"/>
	<path d="M205.76,65.212c0.853-0.853,2.193-1.277,4.025-1.277c0.298,0.043,0.639-0.021,1.021-0.19
		c0.384-0.171,0.873-0.276,1.47-0.319l0.513,0.129c0.297,0,0.702,0.127,1.214,0.383s1.086,0.489,1.727,0.703l0.574,0.574l0.83,0.575
		c0.47,0.128,0.703,0.361,0.703,0.703l0.128,0.511c0.426,0.556,0.575,1.214,0.447,1.98c0.383,0.896,0.446,2.172,0.19,3.834
		c-0.086,2.429-0.342,4.281-0.768,5.561l-0.384,0.575l-1.789,3.577c-0.683,0.938-1.343,1.642-1.979,2.108
		c-0.086,0.384-0.703,0.938-1.854,1.661l-0.768,0.512c-0.768,0.64-2.302,1.257-4.603,1.854c-0.341,0.085-0.605,0.128-0.799,0.128
		c-0.191,0-0.373,0.021-0.543,0.063h-1.021c0.128,0.042,0.148,0.232,0.063,0.575v0.831l0.063,1.598
		c-0.087,0.298-0.129,0.744-0.129,1.343c0,0.596,0.021,0.979,0.064,1.149l-0.192,1.789v1.854c-0.255,0.896-0.361,1.502-0.318,1.82
		c0.042,0.318,0.021,0.563-0.063,0.734c0.085,0.171,0.128,0.361,0.128,0.575c0,0.212-0.096,0.563-0.288,1.055
		c-0.19,0.488-0.318,0.787-0.383,0.896c-0.063,0.105-0.118,0.159-0.16,0.159c-0.086,0.042-0.361,0.232-0.831,0.575l-0.383,0.063
		c-1.363,0-2.376-0.233-3.035-0.702c-0.66-0.47-1.033-1.386-1.118-2.748c0.085-0.086,0.073-0.256-0.031-0.512
		c-0.106-0.256-0.225-0.617-0.353-1.086c0-0.257-0.063-0.555-0.19-0.896l0.127-1.406c-0.127-1.362-0.183-2.142-0.158-2.332
		c0.021-0.19,0.042-0.373,0.063-0.543c0.021-0.171,0-0.521-0.063-1.055c-0.064-0.533,0.031-1.396,0.286-2.589
		c-0.086-0.342-0.086-1.045,0-2.107c0.214-1.191,0.319-2.301,0.319-3.322c0.128-0.257,0.191-0.598,0.191-1.021v-0.896
		c0.042-0.043,0.063-0.191,0.063-0.447l0.063-0.384c0-0.299,0.072-1.021,0.225-2.174c0.147-1.148,0.275-1.938,0.383-2.363
		c0.105-0.426,0.191-1.203,0.256-2.332c0.063-1.129,0.074-1.844,0.032-2.142c-0.086-0.298,0.042-1.215,0.383-2.748
		c-0.086-0.426-0.128-1.191-0.128-2.301c0.256-0.768,0.385-1.938,0.385-3.516c0.213-0.938,0.414-1.64,0.606-2.107
		c0.19-0.468,0.69-0.853,1.501-1.149h0.191c0.213,0.043,0.553,0.106,1.021,0.19c1.318,0.171,2.087,0.405,2.3,0.703l0.447,0.384
		c0.256,0.256,0.384,0.683,0.384,1.277C205.696,64.276,205.674,64.829,205.76,65.212z M212.406,69.877l-0.574-1.662v-0.063
		c-0.086-0.085-0.361-0.128-0.831-0.128c-1.107,0-1.747,0.063-1.917,0.19c-0.64,0.471-1.276,0.874-1.917,1.216
		c-0.043,0.043-0.49,0.469-1.342,1.276l-0.575,1.343c-0.214,1.961-0.299,3.065-0.256,3.322c-0.256,1.491-0.342,2.387-0.256,2.685
		c0.086,0.299,0.104,0.606,0.063,0.927c-0.043,0.319-0.128,1.014-0.256,2.077c0.085,0.384,0.105,1.044,0.063,1.979
		c-0.043,0.938-0.021,1.514,0.063,1.727c0.385,0,0.873-0.256,1.471-0.768c0.085,0.043,0.31-0.117,0.671-0.479
		c0.36-0.362,0.628-0.713,0.799-1.055c0.085-0.042,0.214-0.17,0.385-0.384c0.298-0.342,0.511-0.617,0.64-0.831
		c0.213-0.042,0.384-0.232,0.512-0.574c0-0.213,0.255-0.66,0.768-1.343c1.063-1.874,1.684-3.449,1.854-4.729v-0.384
		c0.084-0.256,0.127-0.489,0.127-0.702l0.256-0.896c0-0.212,0.042-0.36,0.128-0.447L212.406,69.877z"/>
	<path d="M225.25,54.477l0.446-3.771l0.063-1.98c0-0.554,0.106-0.979,0.32-1.278l0.64-0.895c1.149-0.896,1.896-1.406,2.235-1.534
		s0.841-0.117,1.502,0.032c0.66,0.147,1.056,0.287,1.184,0.414l0.701,0.575c0.385,0.214,0.575,0.555,0.575,1.021
		c0.213,0.255,0.275,0.447,0.191,0.575c-0.256,0.298-0.684,2.812-1.277,7.541l-0.513,8.69L231,65.596
		c0,0.554,0.021,0.873,0.063,0.958v1.149c-0.086,0.854-0.171,1.385-0.256,1.599c0,0.214-0.043,0.446-0.128,0.702
		c0.085,0.086,0.128,0.415,0.128,0.99c0,0.574-0.063,0.927-0.19,1.055c-0.087,0.683-0.129,1.331-0.129,1.948
		s0.054,1.258,0.159,1.917c0.105,0.661,0.139,1.312,0.097,1.948L231,80.293v0.958c0.085,0.768,0.128,1.386,0.128,1.854l0.318,3.323
		l0.257,1.725c0.128,0.726,0.073,1.428-0.16,2.109c-0.233,0.681-0.586,1.106-1.055,1.276c-1.32,0.555-2.771,0.191-4.346-1.086
		h-0.512c-0.299-0.343-0.532-0.811-0.702-1.406c-0.343-0.17-0.49-0.468-0.447-0.896c0.042-0.425-0.043-0.809-0.256-1.149
		c-0.214-0.34-0.318-0.64-0.318-0.896c0-0.553-0.044-1.043-0.129-1.47l0.063-0.512c-0.127-0.128-0.19-0.318-0.19-0.574l-0.128-1.15
		v-0.51c0-0.342-0.011-0.575-0.031-0.703s0.031-0.341,0.159-0.641c-0.128-0.169-0.148-0.786-0.063-1.854
		c0.255-3.279,0.384-5.538,0.384-6.772l0.063-1.533v-1.854c0.042-1.021,0.072-2.322,0.096-3.897c0.021-1.575,0.097-2.43,0.225-2.557
		l-0.063-0.575c0-1.021,0.16-2.418,0.479-4.187C225.089,55.553,225.25,54.604,225.25,54.477z"/>
	<path d="M252.791,82.53l-0.958,2.492c0,0.086-0.618,1.001-1.854,2.748c-0.384,0.811-1.099,1.256-2.142,1.342
		c-1.045,0.085-2.056-0.021-3.034-0.318c-1.321-0.47-2.322-1.021-3.005-1.662c-0.682-0.639-1.354-1.714-2.013-3.228
		c-0.661-1.512-1.014-2.758-1.056-3.737c-0.213-1.405-0.318-2.302-0.318-2.685v-1.534c0-1.532,0.063-2.428,0.19-2.684
		c0.042-0.17,0.148-0.617,0.319-1.343c0.212-1.79,0.725-3.492,1.533-5.111c1.574-3.108,3.194-4.707,4.855-4.793h0.318
		c0.085,0.043,0.213,0.063,0.385,0.063h0.831c1.489,0.127,2.405,0.255,2.746,0.383c0.641,0.172,1.192,0.257,1.662,0.257l1.661,0.318
		c0.511-0.042,1.184,0.063,2.014,0.318c0.83,0.256,1.277,0.447,1.342,0.575c0.063,0.128,0.182,0.598,0.353,1.405
		c0.17,0.811,0.288,1.396,0.353,1.758c0.063,0.361,0.116,0.734,0.159,1.117c0.341,3.109,0.896,6.008,1.661,8.69
		c0.042,0.127,0.085,0.319,0.128,0.575c0.042,0.255,0.19,0.757,0.447,1.501c0.256,0.746,0.446,1.374,0.574,1.886
		s0.361,1.192,0.703,2.046c0.255,0.64,0.64,1.385,1.149,2.235c0.938,1.32,0.447,2.343-1.47,3.066
		c-0.257,0.087-0.703,0.129-1.344,0.129c-0.127,0-0.532-0.214-1.214-0.641c-0.426,0-0.831-0.232-1.214-0.703l-0.513-0.127
		c-0.298-0.299-0.554-0.446-0.768-0.446c-0.086-0.086-0.854-1.813-2.301-5.178C252.855,81.721,252.791,82.146,252.791,82.53z
		 M250.81,70.325c-0.043-0.938-0.256-1.65-0.641-2.142c-0.383-0.489-1.086-0.777-2.107-0.863c-0.299,0.215-0.692,0.928-1.184,2.142
		c-0.489,1.216-0.799,2.504-0.926,3.866c-0.428,2.045-0.641,4.09-0.641,6.135c0.042,2.089,0.384,3.621,1.021,4.602
		c0.085,0.171,0.17,0.234,0.256,0.191c0.214,0,0.554-0.426,1.021-1.277C249.873,78.887,250.938,74.669,250.81,70.325z"/>
	<path d="M267.743,49.748c0-0.128,0.021-0.276,0.063-0.446v-2.046c0.042-0.128,0.063-0.31,0.063-0.543
		c0-0.232,0.042-0.437,0.128-0.606c0-0.553,0.232-1.063,0.703-1.534c0.17-0.34,0.403-0.553,0.702-0.639
		c0.554-0.212,1.618-0.042,3.194,0.511c-0.043-0.042,0.011-0.031,0.159,0.032c0.147,0.063,0.245,0.096,0.287,0.096
		c0.426,0.044,0.788,0.427,1.087,1.15c0,0.469,0.085,2.003,0.257,4.601c0.169,2.6,0.19,4.729,0.063,6.392v0.64
		c-0.129,3.237-0.191,5.965-0.191,8.181c-0.086,0.256-0.086,0.532,0,0.831c-0.086,0.511-0.128,1.746-0.128,3.705l0.512-0.702
		l0.319-0.64c0-0.128,0.084-0.288,0.255-0.479s0.277-0.341,0.319-0.446c0.042-0.104,0.105-0.214,0.191-0.319
		c0.085-0.104,0.158-0.213,0.225-0.318c0.063-0.105,0.286-0.288,0.671-0.543c0-0.128,0.232-0.405,0.703-0.831l2.938-3.706
		l1.66-1.149c0.171-0.256,0.607-0.479,1.311-0.671c0.703-0.191,1.354-0.267,1.949-0.225c0.641-0.383,1.575-0.17,2.813,0.64
		c0.641,0.597,0.66,1.342,0.063,2.235c-1.064,1.577-1.704,2.492-1.917,2.748l-2.748,3.834l-0.768,1.214
		c-1.492,1.917-2.419,3.059-2.779,3.419c-0.362,0.362-0.521,0.671-0.479,0.928c0.553,0.554,1.021,0.917,1.404,1.086
		c0.17,0.214,0.33,0.396,0.479,0.544c0.147,0.148,0.225,0.245,0.225,0.287l3.066,3.066c1.575,1.704,2.748,3.109,3.516,4.218
		l2.938,3.26c0.725,0.426,1.086,0.874,1.086,1.342c0,0.47-0.405,0.873-1.214,1.215c-0.256,0.256-1.044,0.319-2.364,0.191
		c-0.896,0.169-1.556,0.147-1.98-0.063c-1.191-0.043-2.343-0.447-3.449-1.214c-0.726-0.554-1.088-0.96-1.088-1.215
		c-0.213-0.298-0.426-0.554-0.639-0.769c-0.257-0.34-0.47-0.658-0.64-0.958c-0.342-0.17-0.768-0.724-1.277-1.66
		c-0.385-0.257-0.575-0.416-0.575-0.479c0-0.063-0.128-0.202-0.383-0.416c-0.257-0.212-0.428-0.341-0.513-0.384
		c0-0.17-0.361-0.702-1.086-1.598c-0.256-0.129-0.459-0.31-0.606-0.543c-0.148-0.233-0.203-0.353-0.16-0.353l-1.214-1.534
		l-0.512-0.768c0,3.238,0.319,6.497,0.958,9.776c0.085,0.682,0.139,1.087,0.16,1.215s0.042,0.245,0.063,0.353
		c0.021,0.104,0.032,0.181,0.032,0.224l-0.447-0.19c0.128,0.085,0.257,0.319,0.384,0.703c0.128,0.383,0.17,0.64,0.128,0.768
		c-0.384,0.425-0.629,0.703-0.734,0.83c-0.106,0.128-0.384,0.213-0.83,0.256c-0.447,0.042-0.692-0.021-0.734-0.19
		c-0.769-0.385-1.215-0.641-1.342-0.768c-0.256-0.043-0.769-0.256-1.534-0.641c-0.043-0.171-0.105-0.298-0.19-0.383
		c-0.384-0.256-0.684-0.575-0.896-0.959c-0.171-0.086-0.361-0.385-0.574-0.896c-0.385-0.725-0.575-1.513-0.575-2.364
		c-0.086-0.341-0.149-0.531-0.19-0.574c-0.043-0.042-0.063-0.213-0.063-0.513l-0.19-1.661c-0.129-0.468-0.15-0.871-0.064-1.214
		l-0.318-1.021l-0.128-2.235l0.128-0.896c-0.256-0.385-0.276-0.938-0.063-1.662v-0.383c-0.043-0.085-0.086-0.47-0.128-1.149
		c-0.043-0.682-0.043-1.088,0-1.215c0.042-0.128,0.063-0.276,0.063-0.447c-0.086-0.597-0.128-1.128-0.128-1.598v-0.703
		c-0.213-4.26-0.318-6.433-0.318-6.52v-1.788c-0.043-0.298-0.012-1,0.096-2.108c0.106-1.107,0.148-2.002,0.128-2.684
		c-0.021-0.682,0.012-1.107,0.097-1.278c0-0.383,0.042-0.768,0.128-1.149v-0.703c0.042-0.128,0.085-0.531,0.128-1.214
		L267.743,49.748z"/>
	<path d="M307.617,53.582c0.213-0.725,0.33-1.14,0.354-1.246c0.021-0.105,0.074-0.245,0.16-0.416
		c0.34-0.682,0.511-1.149,0.511-1.405V49.62c0-0.299-0.021-0.469-0.063-0.512c-0.043-0.042-0.233-0.063-0.573-0.063
		c-0.642,0.128-1.502,0.438-2.59,0.928c-1.087,0.49-1.854,0.938-2.301,1.342c-0.445,0.405-1.033,1.192-1.757,2.364
		c-0.726,1.172-1.119,1.948-1.183,2.333c-0.064,0.384-0.171,0.682-0.319,0.895c-0.15,0.215-0.299,0.715-0.447,1.503
		s-0.224,1.3-0.224,1.533c0,0.234,0.104,0.352,0.319,0.352c0.468,0.086,0.317,0.256-0.447,0.513
		c-0.128,0.086-0.362,0.128-0.703,0.128c-0.342,0-0.554-0.042-0.64-0.128c-0.811,0-1.277-0.104-1.405-0.319
		c-0.47,0-0.979-0.181-1.533-0.543c-0.555-0.361-0.917-0.776-1.087-1.246c-0.598-1.746-0.404-3.387,0.575-4.921
		c0.554-1.617,1.149-2.661,1.789-3.131c0.725-1.534,1.159-2.375,1.311-2.523c0.148-0.147,0.287-0.245,0.415-0.288
		c0.17-0.425,0.256-0.691,0.256-0.798c0-0.105,0.191-0.277,0.575-0.512c0.383-0.233,0.683-0.438,0.896-0.606
		c0.425-0.34,0.639-0.597,0.639-0.768c0.298,0,0.575-0.063,0.831-0.191c0.596-0.127,0.979-0.34,1.15-0.64
		c0.255,0,0.785-0.128,1.598-0.384c0.809-0.255,1.895-0.318,3.259-0.19c0.213,0.086,0.617,0.288,1.214,0.606
		c0.599,0.318,0.938,0.511,1.022,0.575c0.085,0.063,0.189,0.117,0.317,0.159c0.343,0.128,0.642,0.361,0.896,0.703
		c0.384,0.085,0.745,0.233,1.087,0.446c0.425,0.384,0.958,0.683,1.598,0.896l1.086,0.64c0.514,0.085,0.938,0.148,1.278,0.19
		c0.17,0,0.383,0.3,0.639,0.896c0.085,2.216-0.895,5.198-2.938,8.946c-0.128,0.299-0.354,0.757-0.671,1.374
		c-0.319,0.617-0.501,1.054-0.543,1.311c-0.428,0.938-1.577,3.365-3.451,7.284c-1.875,3.92-2.961,6.157-3.259,6.71
		c-0.043,0-0.149,0.118-0.319,0.353c-0.171,0.233-0.299,0.373-0.384,0.415l-0.319,0.703c0,0.214-0.224,0.373-0.671,0.479
		s-0.799,0.139-1.055,0.096h-2.045c-1.022-0.213-1.619-0.403-1.789-0.574c-0.171-0.17-0.256-0.703-0.256-1.599
		c0-2.813,0.573-5.133,1.726-6.965c0.426-1.063,0.82-1.906,1.184-2.524c0.36-0.616,0.585-1.097,0.671-1.438
		c0.086-0.342,0.426-0.81,1.021-1.406c0.256-0.682,0.511-1.191,0.768-1.533c0.214-0.085,0.521-0.489,0.928-1.215
		c0.403-0.725,0.605-1.203,0.605-1.438c0-0.233,0.191-0.479,0.574-0.734c0-0.17,0.128-0.447,0.384-0.831
		c0-0.597,0.128-1.032,0.385-1.311c0.256-0.276,0.384-0.606,0.384-0.991C307.043,53.71,307.235,53.582,307.617,53.582z
		 M297.777,83.552c0.042-0.597,0.148-0.938,0.319-1.022c0.17-0.085,0.33-0.096,0.479-0.031c0.148,0.063,0.929,0.16,2.332,0.288
		c0.384,0.469,0.703,0.744,0.959,0.83c1.022,1.021,1.703,1.533,2.045,1.533c0.343,0.043,0.5,0.353,0.479,0.928
		c-0.022,0.574-0.224,1.097-0.607,1.564c-0.597,1.318-1.385,2.342-2.362,3.066c-0.472,0.169-0.831,0.255-1.086,0.255
		c-0.258,0-0.949-0.086-2.077-0.255c-1.13-0.171-1.779-0.513-1.949-1.021v-1.471c0-0.81,0.096-1.277,0.288-1.405
		c0.19-0.128,0.286-0.468,0.286-1.021l0.191-1.343C297.372,84.234,297.606,83.936,297.777,83.552z"/>
</g>
<g>
	<path fill="#FFFFFF" d="M214.78,114.249v-10.436h1.305v10.436H214.78z M222,114.249h-1.623l-4.217-5.581l4.063-4.854h1.502
		l-4.051,4.776L222,114.249z"/>
	<path fill="#FFFFFF" d="M225.417,111.58l-0.818,2.669h-1.335l3.383-10.436h1.668l3.367,10.436h-1.396l-0.805-2.669H225.417z
		 M227.449,104.906l-1.715,5.598h3.412L227.449,104.906z"/>
	<path fill="#FFFFFF" d="M240.117,113.096l-0.151,1.151h-5.46v-10.436h1.305v9.282L240.117,113.096L240.117,113.096z"/>
	<path fill="#FFFFFF" d="M243.822,111.58l-0.818,2.669h-1.335l3.384-10.436h1.668l3.366,10.436h-1.396l-0.804-2.669H243.822z
		 M245.854,104.906l-1.714,5.598h3.412L245.854,104.906z"/>
	<path fill="#FFFFFF" d="M260.889,114.249l-0.396-4.776c-0.15-1.653-0.271-3.443-0.288-4.323l-2.352,7.902h-1.229l-2.457-7.917
		c-0.017,1.183-0.105,2.865-0.243,4.413l-0.362,4.701h-1.244l0.881-10.436h1.789l2.29,7.721l2.185-7.721h1.79l0.91,10.436H260.889z"
		/>
	<path fill="#FFFFFF" d="M272.983,111.292c0,2.169-1.652,2.957-4.05,2.957h-2.866v-10.436h2.428c2.531,0,4.021,0.817,4.021,2.624
		c0,1.305-0.91,2.077-1.941,2.29C271.8,108.925,272.983,109.516,272.983,111.292z M267.371,108.273h1.698
		c1.198,0,2.094-0.605,2.094-1.744c0-1.305-0.939-1.669-2.532-1.669h-1.26V108.273L267.371,108.273z M271.587,111.292
		c0-1.485-1.092-2.002-2.381-2.002h-1.836v3.896h1.563C270.496,113.187,271.587,112.823,271.587,111.292z"/>
	<path fill="#FFFFFF" d="M279.828,114.431c-2.366,0-3.58-1.456-3.58-3.504v-7.113h1.306v7.007c0,1.64,0.729,2.487,2.274,2.487
		c1.563,0,2.273-0.85,2.273-2.487v-7.007h1.335v7.113C283.437,112.975,282.164,114.431,279.828,114.431z"/>
	<path fill="#FFFFFF" d="M288.857,109.76v4.488h-1.304v-10.436h2.685c2.578,0,3.913,1.001,3.913,2.927
		c0,1.486-0.789,2.353-2.274,2.791l2.82,4.718h-1.563l-2.549-4.488H288.857z M292.755,106.74c0-1.318-0.759-1.896-2.532-1.896
		h-1.365v3.896h1.532C291.891,108.743,292.755,108.182,292.755,106.74z"/>
	<path fill="#FFFFFF" d="M300.586,114.249h-1.337v-4.021l-3.352-6.415h1.456l2.608,5.264l2.594-5.264h1.38l-3.352,6.399
		L300.586,114.249L300.586,114.249z"/>
</g>
<g>
	<path d="M236.854,34.662c-0.156,0.285-0.373,0.41-0.717,0.501c-1.622,0.418-3.002-0.044-4.295-1.143
		c-0.15,0.814-0.706,0.834-1.276,0.855c-0.778,0.029-1.563,0.048-2.333,0.144c-0.373,0.045-0.719,0.273-1.087,0.382
		c-0.203,0.061-0.479,0.129-0.638,0.042c-1.521-0.845-3.036-1.708-4.536-2.594c-1.14-0.673-1.491-0.643-2.585,0.06
		c-1.104,0.705-2.241,1.364-3.407,1.963c-0.811,0.417-1.242,1-1.324,1.896c-0.112,1.218-0.133,2.465-0.425,3.643
		c-0.379,1.518-0.919,3.006-1.512,4.458c-0.618,1.515-1.326,2.996-1.247,4.68c0.069,1.521,0.442,3.099,1.59,4.037
		c0.94,0.771,0.935,1.563,0.969,2.506c0.005,0.126,0.036,0.255,0.07,0.492c-0.237-0.114-0.446-0.172-0.597-0.298
		c-0.438-0.37-0.854-0.768-1.279-1.154c-0.749-0.683-1.564-1.209-2.638-1.084c-0.289,0.034-0.612,0.086-0.844,0.243
		c-0.975,0.664-2.088,1.146-2.812,2.14c-0.028,0.039-0.095,0.052-0.177,0.094c-0.237-0.5-0.114-0.936,0.184-1.336
		c0.633-0.849,1.273-1.688,1.908-2.534c0.14-0.187,0.264-0.384,0.395-0.575c-0.084-0.054-0.136-0.096-0.143-0.09
		c-0.469,0.43-0.932,0.261-1.49,0.144c-0.737-0.155-1.536-0.025-2.311-0.046c-0.419-0.011-0.835-0.101-1.254-0.108
		c-0.185-0.004-0.438,0.04-0.541,0.163c-0.794,0.932-1.541,1.901-2.336,2.831c-0.364,0.425-0.736,0.892-1.434,0.888
		c-0.211-1.228,0.068-2.354,0.659-3.578c-1.938,0-3.737,0-5.537,0c-0.011-0.067-0.021-0.139-0.031-0.208
		c0.868-0.381,1.66-0.94,2.657-1.031c0.813-0.075,1.641-0.103,2.43-0.282c1.229-0.282,2.024-1.13,2.635-2.219
		c1.081-1.929,2.151-3.858,2.574-6.058c0.105-0.549-0.004-1.139-0.007-1.709c-0.003-0.694-0.1-1.409,0.022-2.083
		c0.426-2.354-0.18-3.826-2.245-4.988c-1.831-1.032-3.63-2.114-5.126-3.6c-0.946-0.938-1.975-1.708-3.137-2.354
		c-1.104-0.615-1.855-1.621-2.125-2.874c-0.38-1.756-0.733-3.521-0.975-5.302c-0.156-1.16-0.521-2.19-1.219-3.109
		c-0.628-0.824-1.274-1.634-1.919-2.446c-0.566-0.719-1.289-0.897-2.176-0.697c-1.787,0.406-3.458,1.116-5.08,1.934
		c-2.451,1.232-4.856,2.559-7.325,3.755c-0.95,0.461-2.025,0.661-3.029,1.016c-0.343,0.12-0.646,0.35-0.964,0.537
		c-0.502,0.299-1.002,0.604-1.501,0.908c-0.04-0.045-0.081-0.089-0.123-0.134c0.279-0.321,0.521-0.687,0.845-0.958
		c3.416-2.905,6.854-5.791,10.271-8.699c1.057-0.899,2.094-1.826,3.083-2.799c0.692-0.683,0.934-1.563,0.871-2.552
		c-0.102-1.598,0.251-3.101,1.161-4.433c0.832-1.218,2.032-1.798,3.487-1.875c1.881-0.101,3.699,0.321,5.479,0.825
		c1.888,0.533,3.739,1.206,5.396,2.313c0.979,0.654,1.894,1.357,2.417,2.469c0.104,0.224,0.418,0.469,0.654,0.489
		c2.187,0.206,4.218,0.922,6.08,2.019c1.58,0.931,3.266,1.436,5.012,1.894c4.983,1.31,9.365,3.68,12.565,7.82
		c1.238,1.602,2.211,3.417,3.219,5.185c1.703,2.988,3.622,5.814,5.891,8.409c0.99,1.134,1.969,2.264,3.228,3.114
		C236.854,34.588,236.854,34.626,236.854,34.662z M205.564,35.793c0.124,0.202,0.206,0.357,0.311,0.499
		c0.674,0.906,1.012,1.921,1.001,3.056c-0.01,1.27-0.46,2.425-0.876,3.597c-0.521,1.483-1.048,2.97-1.473,4.482
		c-0.397,1.425,0.432,2.71,1.878,3.006c0.612,0.125,1.251,0.167,1.876,0.153c0.769-0.018,1.371-0.407,1.606-1.153
		c0.62-1.977,1.258-3.952,1.764-5.96c0.217-0.859,0.104-1.799,0.165-2.7c0.031-0.477,0.038-0.97,0.18-1.417
		c0.216-0.686,0.511-1.35,0.819-1.999c0.563-1.172,0.286-1.66-0.999-1.652c-1.965,0.011-3.933,0.033-5.898,0.053
		C205.83,35.757,205.74,35.774,205.564,35.793z"/>
</g>
<path d="M241.158,54.299c-17.391-2.854-34.721,0.769-52.165,0.661c-3.226-0.021-3.224,4.979,0,5
	c16.938,0.104,33.959-3.606,50.835-0.839C242.981,59.637,244.333,54.82,241.158,54.299z"/>
</svg>
